<?xml version="1.0" encoding="utf-8"?>
<svg viewBox="0 0 1450 450" xmlns="http://www.w3.org/2000/svg">
  <g class="svg-floormap-group" stroke="#87ceeb" stroke-width="1" fill="#3780B8" transform="matrix(1, 0, 0, 1, -22.890543, -105.680275)">
    <polygon points="44 138,44 262,90 262,91 263,91 274,90 275,52 275,48 275,48 358,44 359,44 484,65 484,65 481,66 480,625 480,626 483,646 483,646 383,647 382,828 382,829 383,829 484,848 484,849 481,1407 481,1408 484,1430 484,1429 139,1428 138,1409 138,1407 141,848 141,847 138,827 138,827 357,826 358,647 358,646 357,646 138,624 138,623 141,65 141,64 138" class="svg-floormap" id="shape1" style="fill: rgb(128, 128, 128);"/>
    <polygon points="882 382,913 382,913 479,882 479" class="svg-floormap" id="shape2"/>
    <polygon points="831 478.9999694824219,831 381.9999694824219,880 381.9999694824219,880 478.9999694824219" class="svg-floormap" id="shape3"/>
    <polygon points="590.9999389648438 477.9999694824219,590.9999389648438 381.9999694824219,643.9999389648438 381.9999694824219,643.9999389648438 477.9999694824219" class="svg-floormap" id="shape4"/>
    <polygon points="540.9999389648438 477.9999694824219,540.9999389648438 381.9999694824219,588.9999389648438 381.9999694824219,588.9999389648438 477.9999694824219" class="svg-floormap" id="shape5"/>
    <polygon points="488 477.9999694824219,488 381.9999694824219,539 381.9999694824219,539 477.9999694824219" class="svg-floormap" id="shape6"/>
    <polygon points="91 335,127 335,127 357,91 357" class="svg-floormap" id="shape7"/>
    <polygon points="524 313,558 313,558 357,524 357" class="svg-floormap" id="shape8"/>
    <polygon points="486 313,522 313,522 357,486 357" class="svg-floormap" id="shape9"/>
    <polygon points="914 312,948 312,948 359,914 359" class="svg-floormap" id="shape10"/>
    <polygon points="950 311,985 311,985 359,950 359" class="svg-floormap" id="shape11"/>
    <polygon points="51 277,89 277,89 358,51 358" class="svg-floormap" id="shape12"/>
    <polygon points="419 264,484 264,484 357,419 357" class="svg-floormap" id="shape13"/>
    <polygon points="350 264,416 264,416 357,350 357" class="svg-floormap" id="shape14"/>
    <polygon points="91 333,91 264,145 264,145 333" class="svg-floormap" id="shape15"/>
    <polygon points="1352 263,1425 263,1425 357,1352 357" class="svg-floormap" id="shape16"/>
    <polygon points="1208 264,1209 263,1349 263,1350 264,1350 360,1423 360,1424 361,1424 458,1423 459,1416 459,1416 473,1415 474,1408 474,1408 478,1407 479,916 479,915 478,915 362,916 361,1208 361" class="svg-floormap" id="shape17"/>
    <polygon points="1060.9998779296875 262.9999694824219,1205.9998779296875 262.9999694824219,1205.9998779296875 358.9999694824219,1060.9998779296875 358.9999694824219" class="svg-floormap" id="shape18"/>
    <polygon points="987 358.9999694824219,987 262.9999694824219,1059 262.9999694824219,1059 358.9999694824219" class="svg-floormap" id="shape19"/>
    <polygon points="914 263,985 263,985 309,914 309" class="svg-floormap" id="shape20"/>
    <polygon points="884 358.9999694824219,884 262.9999694824219,912 262.9999694824219,912 358.9999694824219" class="svg-floormap" id="shape21"/>
    <polygon points="560 263,588 263,588 357,560 357" class="svg-floormap" id="shape22"/>
    <polygon points="486 263,558 263,558 311,486 311" class="svg-floormap" id="shape23"/>
    <polygon points="147 264,149 263,347 263,348 264,348 359,403 359,432 359,485 359,486 360,486 473,484 476,66 476,65 475,57 475,56 474,56 460,50 460,49 459,49 360,50 359,129 360,129 336,130 335,147 335" class="svg-floormap" id="shape24"/>
    <polygon points="1044.9998779296875 260.9999694824219,1044.9998779296875 145.99996948242188,1422.9998779296875 145.99996948242188,1422.9998779296875 260.9999694824219" class="svg-floormap" id="shape27"/>
    <polygon points="933 237.99996948242188,933 145.99996948242188,1050 145.99996948242188,1050 237.99996948242188" class="svg-floormap" id="shape28"/>
    <polygon points="829 146,931 146,931 238,829 238" class="svg-floormap" id="shape29"/>
    <polygon points="590 147,591 146,631 146,632 147,632 205,631 206,603 206,603 225,602 226,591 226,590 225" class="svg-floormap" id="shape30"/>
    <polygon points="542 147,543 146,587 146,588 147,588 225,587 226,576 226,575 225,575 206,543 206,542 205" class="svg-floormap" id="shape31"/>
    <polygon points="455 237.99996948242188,455 145.99996948242188,539 145.99996948242188,539 237.99996948242188" class="svg-floormap" id="shape32"/>
    <polygon points="201 146,452 146,453 147,453 240,465 240,466 241,466 259,464 261,193 261,129 261,128 260,128 239,129 238,199 238,199 148" class="svg-floormap" id="shape33"/>
    <polygon points="65 147,66 146,196 146,197 147,197 235,196 236,126 236,126 260,125 261,49 260,48 259,48 163,49 162,57 162,57 149,58 148,65 148" class="svg-floormap" id="shape34"/>
  </g>
</svg>